<svg xmlns="http://www.w3.org/2000/svg" xmlns:xlink="http://www.w3.org/1999/xlink" viewBox="0,0,256,256" width="64px" height="64px" fill-rule="nonzero"><g fill="#ffffff" fill-rule="nonzero" stroke="none" stroke-width="1" stroke-linecap="butt" stroke-linejoin="miter" stroke-miterlimit="10" stroke-dasharray="" stroke-dashoffset="0" font-family="none" font-weight="none" font-size="none" text-anchor="none" style="mix-blend-mode: normal"><g transform="scale(4,4)"><path d="M13,6c-3.85937,0 -7,3.14063 -7,7v38c0,3.85938 3.14063,7 7,7h38c3.85938,0 7,-3.14062 7,-7v-38c0,-3.85937 -3.14062,-7 -7,-7zM13,8h38c2.75781,0 5,2.24219 5,5v38c0,2.75781 -2.24219,5 -5,5h-38c-2.75781,0 -5,-2.24219 -5,-5v-38c0,-2.75781 2.24219,-5 5,-5zM48,13c-1.65234,0 -3,1.34766 -3,3c0,1.65234 1.34766,3 3,3c1.65234,0 3,-1.34766 3,-3c0,-1.65234 -1.34766,-3 -3,-3zM48,14.53125c0.80859,0 1.46875,0.66016 1.46875,1.46875c0,0.80859 -0.66016,1.46875 -1.46875,1.46875c-0.80859,0 -1.46875,-0.66016 -1.46875,-1.46875c0,-0.80859 0.66016,-1.46875 1.46875,-1.46875zM32,18c-7.71875,0 -14,6.28125 -14,14c0,7.71875 6.28125,14 14,14c7.71875,0 14,-6.28125 14,-14c0,-7.71875 -6.28125,-14 -14,-14zM32,20c6.61719,0 12,5.38281 12,12c0,6.61719 -5.38281,12 -12,12c-6.61719,0 -12,-5.38281 -12,-12c0,-6.61719 5.38281,-12 12,-12zM32,22c-5.51562,0 -10,4.48438 -10,10c0,5.51563 4.48438,10 10,10c5.51563,0 10,-4.48437 10,-10c0,-5.51562 -4.48437,-10 -10,-10zM32,24c4.41016,0 8,3.58984 8,8c0,4.41016 -3.58984,8 -8,8c-4.41016,0 -8,-3.58984 -8,-8c0,-4.41016 3.58984,-8 8,-8zM12,49c-0.55078,0 -1,0.44922 -1,1v2c0,0.55078 0.44922,1 1,1c0.55078,0 1,-0.44922 1,-1v-2c0,-0.55078 -0.44922,-1 -1,-1zM17,49c-0.55078,0 -1,0.44922 -1,1v2c0,0.55078 0.44922,1 1,1c0.55078,0 1,-0.44922 1,-1v-2c0,-0.55078 -0.44922,-1 -1,-1zM22,49c-0.55078,0 -1,0.44922 -1,1v2c0,0.55078 0.44922,1 1,1c0.55078,0 1,-0.44922 1,-1v-2c0,-0.55078 -0.44922,-1 -1,-1zM27,49c-0.55078,0 -1,0.44922 -1,1v2c0,0.55078 0.44922,1 1,1c0.55078,0 1,-0.44922 1,-1v-2c0,-0.55078 -0.44922,-1 -1,-1zM32,49c-0.55078,0 -1,0.44922 -1,1v2c0,0.55078 0.44922,1 1,1c0.55078,0 1,-0.44922 1,-1v-2c0,-0.55078 -0.44922,-1 -1,-1zM37,49c-0.55078,0 -1,0.44922 -1,1v2c0,0.55078 0.44922,1 1,1c0.55078,0 1,-0.44922 1,-1v-2c0,-0.55078 -0.44922,-1 -1,-1zM42,49c-0.55078,0 -1,0.44922 -1,1v2c0,0.55078 0.44922,1 1,1c0.55078,0 1,-0.44922 1,-1v-2c0,-0.55078 -0.44922,-1 -1,-1zM47,49c-0.55078,0 -1,0.44922 -1,1v2c0,0.55078 0.44922,1 1,1c0.55078,0 1,-0.44922 1,-1v-2c0,-0.55078 -0.44922,-1 -1,-1zM52,49c-0.55078,0 -1,0.44922 -1,1v2c0,0.55078 0.44922,1 1,1c0.55078,0 1,-0.44922 1,-1v-2c0,-0.55078 -0.44922,-1 -1,-1z"></path></g></g></svg>